Motion_sv09_l
version=1
nRows=6
nColumns=43
inDegrees=yes
endheader
time	pelvis_tilt	pelvis_list	pelvis_rotation	pelvis_tx	pelvis_ty	pelvis_tz	hip_flexion_r	hip_adduction_r	hip_rotation_r	knee_angle_r	ankle_angle_r	subtalar_angle_r	mtp_angle_r	hip_flexion_l	hip_adduction_l	hip_rotation_l	knee_angle_l	ankle_angle_l	subtalar_angle_l	mtp_angle_l	lumbar_extension	lumbar_bending	lumbar_rotation	neck_flexion	neck_lateral_bending	neck_rotation	arm_flex_r	arm_add_r	arm_rot_r	elbow_flex_r	pro_sup_r	wrist_flex_r	wrist_dev_r	hand_finger_flex_r	arm_flex_l	arm_add_l	arm_rot_l	elbow_flex_l	pro_sup_l	wrist_flex_l	wrist_dev_l	hand_finger_flex_l
      1.63000000	      4.02076722	     25.55871598	     87.03843144	     -0.02192165	      0.97048184	      0.27953625	    -21.79083137	     -3.60499711	     -7.21618118	    -19.09040811	     14.61521353	      1.09471704	     -2.60755786	    -29.69288077	    -10.15494775	    -21.45402220	     -4.51577702	      7.24164767	     35.31527218	      9.40658415	    -47.64530148	      7.79740679	     -4.17140126	    -26.00015903	    -12.97202116	      0.01069226	    -12.87321481	    -20.95736754	     -6.11714354	     68.21230484	    137.06488934	     19.10008931	      2.73888364	     17.62636409	    -24.97778257	    -10.36318295	     -4.71803212	    107.36220165	    117.75103044	    -27.34178467	    -17.55720180	     31.87137158
      1.63250000	      3.89032872	     26.10749434	     87.27609580	     -0.02199123	      0.97126273	      0.27807612	    -22.89673872	     -3.66025040	     -7.69856557	    -18.34031268	     14.70480423	      1.25058844	     -2.56508064	    -30.64581557	    -10.01623856	    -21.67022943	     -3.86389207	      6.90791178	     35.91444209	      9.22594264	    -47.97528503	      7.80012972	     -4.32499945	    -26.10287301	    -12.90689614	      0.13533635	    -13.07985725	    -20.77036021	     -6.37361895	     68.14732622	    136.93581519	     19.12422655	      2.80295620	     17.57322704	    -25.03875533	    -10.35439644	     -4.65847476	    107.23136725	    117.22043845	    -27.37906740	    -17.70487351	     31.66303745
      1.63500000	      3.89405502	     26.09111040	     87.28017028	     -0.02192769	      0.97110911	      0.27782733	    -22.91707069	     -3.64666733	     -7.69759302	    -18.34619548	     14.70182061	      1.25535604	     -2.56509022	    -30.63950956	    -10.02794151	    -21.67444349	     -3.85729158	      6.90791903	     35.91399365	      9.22535401	    -47.97501241	      7.76730225	     -4.33456579	    -26.09375804	    -12.90619607	      0.13388501	    -13.07846934	    -20.77640095	     -6.38534622	     68.13501118	    136.93650553	     19.12406934	      2.80487110	     17.57295707	    -25.04148536	    -10.34036246	     -4.64894891	    107.22654680	    117.21944251	    -27.37745150	    -17.70410605	     31.66258843
      1.63750000	      3.89292067	     26.08193923	     87.28697267	     -0.02164761	      0.97098740	      0.27726412	    -22.96269326	     -3.63263030	     -7.68717707	    -18.32284458	     14.69830870	      1.27726683	     -2.56404798	    -30.67920782	    -10.04836830	    -21.69331539	     -3.84815381	      6.91175022	     35.91536999	      9.22312594	    -47.89809332	      7.73248078	     -4.33887745	    -26.01923331	    -12.89049437	      0.12794107	    -13.08939505	    -20.68775272	     -6.42049613	     68.02091664	    136.94315694	     19.12674295	      2.81436076	     17.57149440	    -25.06648054	    -10.25452163	     -4.60845468	    107.19710665	    117.21068218	    -27.37308636	    -17.69726655	     31.65951089
      1.64000000	      3.89309790	     26.06656789	     87.29544845	     -0.02168509	      0.97093966	      0.27704413	    -22.97287077	     -3.63118914	     -7.68657648	    -18.32141497	     14.69894494	      1.27894079	     -2.56382925	    -30.68503268	    -10.04814665	    -21.69503919	     -3.84710656	      6.91258869	     35.91586531	      9.22299519	    -47.89649795	      7.72714206	     -4.33040216	    -26.01446249	    -12.88914723	      0.12783013	    -13.08106325	    -20.68761074	     -6.42914563	     68.01357587	    136.94303979	     19.12631138	      2.81507926	     17.57117153	    -25.07081375	    -10.25133880	     -4.61147063	    107.19148329	    117.20919588	    -27.37390961	    -17.69561534	     31.65907099
      1.64250000	      3.90070527	     26.04282230	     87.28903168	     -0.02144572	      0.97083498	      0.27621907	    -23.06250535	     -3.61046889	     -7.67510335	    -18.22304204	     14.72031863	      1.30998172	     -2.55911901	    -30.75038229	    -10.05946830	    -21.72722922	     -3.79239086	      6.93582444	     35.92473139	      9.22153865	    -47.76959726	      7.69993968	     -4.32179611	    -25.89488374	    -12.86109619	      0.12743887	    -13.10566144	    -20.56771196	     -6.55702668	     67.78390353	    136.95077413	     19.12424995	      2.83230362	     17.56578698	    -25.13688015	    -10.13361403	     -4.60849728	    107.09312414	    117.18306271	    -27.38062964	    -17.66754129	     31.65212125
